<?xml version="1.0" encoding="UTF-8"?>
<!DOCTYPE svg PUBLIC "-//W3C//DTD SVG 1.1//EN" "http://www.w3.org/Graphics/SVG/1.1/DTD/svg11.dtd">
<svg xmlns="http://www.w3.org/2000/svg" version="1.1" width="133px" height="133px" style="shape-rendering:geometricPrecision; text-rendering:geometricPrecision; image-rendering:optimizeQuality; fill-rule:evenodd; clip-rule:evenodd" xmlns:xlink="http://www.w3.org/1999/xlink">
<g><path style="opacity:0.954" fill="#472c03" d="M 69.5,5.5 C 70.0356,8.69805 69.369,11.3647 67.5,13.5C 66.5,13.5 65.5,13.5 64.5,13.5C 64.5,12.1667 64.5,10.8333 64.5,9.5C 55.0144,8.5062 45.3478,8.17287 35.5,8.5C 35.5,18.1667 35.5,27.8333 35.5,37.5C 33.3926,38.4682 31.0593,38.8016 28.5,38.5C 28.5,40.8333 28.5,43.1667 28.5,45.5C 28.5,46.8333 28.5,48.1667 28.5,49.5C 25.8333,49.5 23.1667,49.5 20.5,49.5C 20.5,45.1667 20.5,40.8333 20.5,36.5C 19.5,36.5 18.5,36.5 17.5,36.5C 17.5,31.8333 17.5,27.1667 17.5,22.5C 18.5,22.5 19.5,22.5 20.5,22.5C 20.5,19.1667 20.5,15.8333 20.5,12.5C 22.8333,12.5 25.1667,12.5 27.5,12.5C 27.5,9.5 27.5,6.5 27.5,3.5C 40.0497,1.66408 52.7163,0.997414 65.5,1.5C 65.5,2.83333 65.5,4.16667 65.5,5.5C 66.8333,5.5 68.1667,5.5 69.5,5.5 Z"/></g>
<g><path style="opacity:0.854" fill="#7e6a4c" d="M 69.5,5.5 C 70.5,5.5 71.5,5.5 72.5,5.5C 72.5,7.83333 72.5,10.1667 72.5,12.5C 73.5,12.5 74.5,12.5 75.5,12.5C 75.5,14.5 75.5,16.5 75.5,18.5C 74.5,18.5 73.5,18.5 72.5,18.5C 70.8333,18.5 69.1667,18.5 67.5,18.5C 67.5,17.1667 67.5,15.8333 67.5,14.5C 67.5,14.1667 67.5,13.8333 67.5,13.5C 69.369,11.3647 70.0356,8.69805 69.5,5.5 Z"/></g>
<g><path style="opacity:1" fill="#a27757" d="M 64.5,9.5 C 55.1667,9.5 45.8333,9.5 36.5,9.5C 36.8269,19.015 36.4936,28.3483 35.5,37.5C 35.5,27.8333 35.5,18.1667 35.5,8.5C 45.3478,8.17287 55.0144,8.5062 64.5,9.5 Z"/></g>
<g><path style="opacity:1" fill="#fcc3ad" d="M 64.5,9.5 C 64.5,10.8333 64.5,12.1667 64.5,13.5C 65.5,13.5 66.5,13.5 67.5,13.5C 67.5,13.8333 67.5,14.1667 67.5,14.5C 65.6096,14.2965 64.1096,14.9632 63,16.5C 62.5001,28.4954 62.3335,40.4954 62.5,52.5C 58.3966,51.7691 54.8966,52.7691 52,55.5C 51.7445,62.6905 51.2445,69.8572 50.5,77C 50.6431,79.151 51.6431,80.8176 53.5,82C 56.146,82.4974 58.8127,82.6641 61.5,82.5C 61.5,83.8333 61.5,85.1667 61.5,86.5C 49.9877,86.8281 38.6544,86.4948 27.5,85.5C 32.5111,85.6659 37.5111,85.4993 42.5,85C 43.3333,84.1667 44.1667,83.3333 45,82.5C 45.5017,74.1391 45.8351,65.8058 46,57.5C 45.1667,56.6667 44.3333,55.8333 43.5,55C 40.1832,54.5017 36.8499,54.335 33.5,54.5C 34.5847,49.8299 32.918,46.8299 28.5,45.5C 28.5,43.1667 28.5,40.8333 28.5,38.5C 31.0593,38.8016 33.3926,38.4682 35.5,37.5C 36.4936,28.3483 36.8269,19.015 36.5,9.5C 45.8333,9.5 55.1667,9.5 64.5,9.5 Z"/></g>
<g><path style="opacity:0.879" fill="#fdd4c6" d="M 67.5,14.5 C 67.5,15.8333 67.5,17.1667 67.5,18.5C 66.5489,19.9187 66.2155,21.5853 66.5,23.5C 66.5,28.1667 66.5,32.8333 66.5,37.5C 66.5,43.5 66.5,49.5 66.5,55.5C 64.5,56.1667 62.5,56.8333 60.5,57.5C 59.1667,57.5 57.8333,57.5 56.5,57.5C 56.5,64.1667 56.5,70.8333 56.5,77.5C 57.8333,77.5 59.1667,77.5 60.5,77.5C 60.8333,77.5 61.1667,77.5 61.5,77.5C 61.5,79.1667 61.5,80.8333 61.5,82.5C 58.8127,82.6641 56.146,82.4974 53.5,82C 51.6431,80.8176 50.6431,79.151 50.5,77C 51.2445,69.8572 51.7445,62.6905 52,55.5C 54.8966,52.7691 58.3966,51.7691 62.5,52.5C 62.3335,40.4954 62.5001,28.4954 63,16.5C 64.1096,14.9632 65.6096,14.2965 67.5,14.5 Z"/></g>
<g><path style="opacity:0.265" fill="#ea24e3" d="M 72.5,18.5 C 73.5,18.5 74.5,18.5 75.5,18.5C 92.9028,18.0419 110.236,18.5419 127.5,20C 128.811,26.7765 128.811,33.6099 127.5,40.5C 121.896,41.4544 116.229,41.7877 110.5,41.5C 110.667,53.5046 110.5,65.5046 110,77.5C 107.561,81.9765 103.727,83.6431 98.5,82.5C 95.8333,82.3333 93.1667,82.1667 90.5,82C 89.6667,81.1667 88.8333,80.3333 88,79.5C 87.5001,66.8377 87.3334,54.1711 87.5,41.5C 81.8236,41.6661 76.1569,41.4994 70.5,41C 68.6498,40.3103 67.3164,39.1436 66.5,37.5C 66.5,32.8333 66.5,28.1667 66.5,23.5C 67.9143,21.082 69.9143,19.4153 72.5,18.5 Z"/></g>
<g><path style="opacity:1" fill="#bd38ba" d="M 98.5,76.5 C 98.5086,74.6916 98.0086,73.0249 97,71.5C 96.6667,59.5 96.3333,47.5 96,35.5C 95.5,35 95,34.5 94.5,34C 88.8333,33.6667 83.1667,33.3333 77.5,33C 75.9512,31.786 74.7845,30.286 74,28.5C 73.5034,30.8098 73.3367,33.1432 73.5,35.5C 72.5206,32.3752 72.1872,29.0419 72.5,25.5C 89.8333,25.5 107.167,25.5 124.5,25.5C 124.5,28.8333 124.5,32.1667 124.5,35.5C 117.833,35.5 111.167,35.5 104.5,35.5C 104.5,49.1667 104.5,62.8333 104.5,76.5C 102.5,76.5 100.5,76.5 98.5,76.5 Z"/></g>
<g><path style="opacity:1" fill="#932591" d="M 98.5,76.5 C 96.8333,76.5 95.1667,76.5 93.5,76.5C 93.5,62.8333 93.5,49.1667 93.5,35.5C 86.8333,35.5 80.1667,35.5 73.5,35.5C 73.3367,33.1432 73.5034,30.8098 74,28.5C 74.7845,30.286 75.9512,31.786 77.5,33C 83.1667,33.3333 88.8333,33.6667 94.5,34C 95,34.5 95.5,35 96,35.5C 96.3333,47.5 96.6667,59.5 97,71.5C 98.0086,73.0249 98.5086,74.6916 98.5,76.5 Z"/></g>
<g><path style="opacity:1" fill="#cc5dca" d="M 101.5,37.5 C 102.829,43.1275 103.496,49.1275 103.5,55.5C 103.167,61.5 102.833,67.5 102.5,73.5C 101.808,72.9747 101.308,72.3081 101,71.5C 100.19,60.0905 100.357,48.7572 101.5,37.5 Z"/></g>
<g><path style="opacity:0.907" fill="#e0ae9a" d="M 28.5,45.5 C 32.918,46.8299 34.5847,49.8299 33.5,54.5C 36.8499,54.335 40.1832,54.5017 43.5,55C 44.3333,55.8333 45.1667,56.6667 46,57.5C 45.8351,65.8058 45.5017,74.1391 45,82.5C 44.1667,83.3333 43.3333,84.1667 42.5,85C 37.5111,85.4993 32.5111,85.6659 27.5,85.5C 27.5,83.5 27.5,81.5 27.5,79.5C 31.6344,78.5151 35.9677,78.1818 40.5,78.5C 40.5,72.1667 40.5,65.8333 40.5,59.5C 36.5,59.5 32.5,59.5 28.5,59.5C 28.5,56.1667 28.5,52.8333 28.5,49.5C 28.5,48.1667 28.5,46.8333 28.5,45.5 Z"/></g>
<g><path style="opacity:0.288" fill="#ea26e3" d="M 66.5,55.5 C 72.0934,55.1934 77.5934,55.5268 83,56.5C 83.4998,65.4938 83.6664,74.4938 83.5,83.5C 89.764,85.3861 89.764,86.3861 83.5,86.5C 83.5,87.5 83.5,88.5 83.5,89.5C 82.1667,89.5 80.8333,89.5 79.5,89.5C 78.8333,89.5 78.1667,89.5 77.5,89.5C 77.5,88.5 77.5,87.5 77.5,86.5C 77.5,85.5 77.5,84.5 77.5,83.5C 77.5,75.1667 77.5,66.8333 77.5,58.5C 76.1667,58.5 74.8333,58.5 73.5,58.5C 70.6122,57.9898 68.2789,58.6565 66.5,60.5C 66.5,66.1667 66.5,71.8333 66.5,77.5C 64.8333,77.5 63.1667,77.5 61.5,77.5C 61.1667,77.5 60.8333,77.5 60.5,77.5C 60.5,70.8333 60.5,64.1667 60.5,57.5C 62.5,56.8333 64.5,56.1667 66.5,55.5 Z"/></g>
<g><path style="opacity:1" fill="#bf36bc" d="M 73.5,58.5 C 73.3336,66.84 73.5003,75.1733 74,83.5C 75.0924,85.9312 76.2591,85.9312 77.5,83.5C 77.5,84.5 77.5,85.5 77.5,86.5C 76.1667,86.5 74.8333,86.5 73.5,86.5C 73.3343,90.8461 73.501,95.1794 74,99.5C 74.5,100.667 75.3333,101.5 76.5,102C 88.8468,102.167 101.18,102.667 113.5,103.5C 114.98,105.457 116.647,106.124 118.5,105.5C 118.5,106.833 118.5,108.167 118.5,109.5C 117.167,109.5 115.833,109.5 114.5,109.5C 114.5,108.833 114.167,108.5 113.5,108.5C 113.586,107.504 113.252,106.671 112.5,106C 99.2582,105.824 86.0915,105.324 73,104.5C 71.7009,90.5936 71.0342,76.5936 71,62.5C 70.6174,61.944 70.1174,61.6107 69.5,61.5C 69.1959,59.2043 68.1959,58.871 66.5,60.5C 68.2789,58.6565 70.6122,57.9898 73.5,58.5 Z"/></g>
<g><path style="opacity:1" fill="#cf5ecc" d="M 73.5,58.5 C 74.8333,58.5 76.1667,58.5 77.5,58.5C 77.5,66.8333 77.5,75.1667 77.5,83.5C 76.2591,85.9312 75.0924,85.9312 74,83.5C 73.5003,75.1733 73.3336,66.84 73.5,58.5 Z"/></g>
<g><path style="opacity:1" fill="#f68fc5" d="M 61.5,77.5 C 63.1667,77.5 64.8333,77.5 66.5,77.5C 66.5,80.5 66.5,83.5 66.5,86.5C 65.5,86.5 64.5,86.5 63.5,86.5C 62.8333,86.5 62.1667,86.5 61.5,86.5C 61.5,85.1667 61.5,83.8333 61.5,82.5C 61.5,80.8333 61.5,79.1667 61.5,77.5 Z"/></g>
<g><path style="opacity:1" fill="#633029" d="M 27.5,79.5 C 27.5,81.5 27.5,83.5 27.5,85.5C 38.6544,86.4948 49.9877,86.8281 61.5,86.5C 61.3336,95.1731 61.5002,103.84 62,112.5C 65.8592,115.756 69.6925,116.09 73.5,113.5C 73.8333,113.5 74.1667,113.5 74.5,113.5C 74.5,119.833 74.5,126.167 74.5,132.5C 55.8333,132.5 37.1667,132.5 18.5,132.5C 18.5,124.167 18.5,115.833 18.5,107.5C 15.3752,106.521 12.0419,106.187 8.5,106.5C 8.5,100.5 8.5,94.5 8.5,88.5C 11.1667,88.5 13.8333,88.5 16.5,88.5C 16.5,85.5 16.5,82.5 16.5,79.5C 20.1667,79.5 23.8333,79.5 27.5,79.5 Z"/></g>
<g><path style="opacity:1" fill="#7e2d4d" d="M 61.5,86.5 C 62.1667,86.5 62.8333,86.5 63.5,86.5C 63.3336,94.5069 63.5003,102.507 64,110.5C 67.0509,112.019 70.2176,113.019 73.5,113.5C 69.6925,116.09 65.8592,115.756 62,112.5C 61.5002,103.84 61.3336,95.1731 61.5,86.5 Z"/></g>
<g><path style="opacity:1" fill="#9b2c74" d="M 63.5,86.5 C 64.5,86.5 65.5,86.5 66.5,86.5C 66.5,94.1667 66.5,101.833 66.5,109.5C 69.1667,109.5 71.8333,109.5 74.5,109.5C 74.5,110.833 74.5,112.167 74.5,113.5C 74.1667,113.5 73.8333,113.5 73.5,113.5C 70.2176,113.019 67.0509,112.019 64,110.5C 63.5003,102.507 63.3336,94.5069 63.5,86.5 Z"/></g>
<g><path style="opacity:0.26" fill="#ea25e3" d="M 86.5,92.5 C 98.243,92.0645 109.91,92.5645 121.5,94C 122.701,94.9025 123.535,96.0692 124,97.5C 124.667,102.167 124.667,106.833 124,111.5C 123.5,113.333 122.333,114.5 120.5,115C 108.171,115.5 95.8378,115.667 83.5,115.5C 83.5,114.833 83.5,114.167 83.5,113.5C 83.5,112.167 83.5,110.833 83.5,109.5C 93.8333,109.5 104.167,109.5 114.5,109.5C 115.833,109.5 117.167,109.5 118.5,109.5C 118.5,108.167 118.5,106.833 118.5,105.5C 118.5,103.5 118.5,101.5 118.5,99.5C 107.833,99.5 97.1667,99.5 86.5,99.5C 86.5,98.1667 86.5,96.8333 86.5,95.5C 86.5,94.5 86.5,93.5 86.5,92.5 Z"/></g>
<g><path style="opacity:1" fill="#7b2e49" d="M 79.5,89.5 C 80.8333,89.5 82.1667,89.5 83.5,89.5C 84.5,89.5 85.5,89.5 86.5,89.5C 86.5,90.5 86.5,91.5 86.5,92.5C 86.5,93.5 86.5,94.5 86.5,95.5C 85.8333,95.5 85.5,95.8333 85.5,96.5C 83.5,96.5 81.5,96.5 79.5,96.5C 79.5,94.1667 79.5,91.8333 79.5,89.5 Z"/></g>
<g><path style="opacity:1" fill="#a22d81" d="M 77.5,89.5 C 78.1667,89.5 78.8333,89.5 79.5,89.5C 79.5,91.8333 79.5,94.1667 79.5,96.5C 81.5,96.5 83.5,96.5 85.5,96.5C 85.5,97.5 85.5,98.5 85.5,99.5C 82.8333,99.5 80.1667,99.5 77.5,99.5C 77.5,96.1667 77.5,92.8333 77.5,89.5 Z"/></g>
<g><path style="opacity:1" fill="#c84fc5" d="M 77.5,86.5 C 77.5,87.5 77.5,88.5 77.5,89.5C 77.5,92.8333 77.5,96.1667 77.5,99.5C 80.1667,99.5 82.8333,99.5 85.5,99.5C 85.5,98.5 85.5,97.5 85.5,96.5C 85.5,95.8333 85.8333,95.5 86.5,95.5C 86.5,96.8333 86.5,98.1667 86.5,99.5C 97.1667,99.5 107.833,99.5 118.5,99.5C 118.5,101.5 118.5,103.5 118.5,105.5C 116.647,106.124 114.98,105.457 113.5,103.5C 101.18,102.667 88.8468,102.167 76.5,102C 75.3333,101.5 74.5,100.667 74,99.5C 73.501,95.1794 73.3343,90.8461 73.5,86.5C 74.8333,86.5 76.1667,86.5 77.5,86.5 Z"/></g>
<g><path style="opacity:0.802" fill="#dca996" d="M 8.5,106.5 C 12.0419,106.187 15.3752,106.521 18.5,107.5C 16.1667,107.5 13.8333,107.5 11.5,107.5C 11.5,115.833 11.5,124.167 11.5,132.5C 10.1667,132.5 8.83333,132.5 7.5,132.5C 7.17364,123.651 7.50698,114.984 8.5,106.5 Z"/></g>
<g><path style="opacity:1" fill="#a92ba6" d="M 69.5,61.5 C 70.1174,61.6107 70.6174,61.944 71,62.5C 71.0342,76.5936 71.7009,90.5936 73,104.5C 86.0915,105.324 99.2582,105.824 112.5,106C 113.252,106.671 113.586,107.504 113.5,108.5C 99.5746,107.684 85.5746,107.184 71.5,107C 71,106.5 70.5,106 70,105.5C 69.5001,90.8371 69.3334,76.1705 69.5,61.5 Z"/></g>
<g><path style="opacity:1" fill="#fcc4ad" d="M 18.5,107.5 C 18.5,115.833 18.5,124.167 18.5,132.5C 16.1667,132.5 13.8333,132.5 11.5,132.5C 11.5,124.167 11.5,115.833 11.5,107.5C 13.8333,107.5 16.1667,107.5 18.5,107.5 Z"/></g>
<g><path style="opacity:1" fill="#972694" d="M 69.5,61.5 C 69.3334,76.1705 69.5001,90.8371 70,105.5C 70.5,106 71,106.5 71.5,107C 85.5746,107.184 99.5746,107.684 113.5,108.5C 114.167,108.5 114.5,108.833 114.5,109.5C 104.167,109.5 93.8333,109.5 83.5,109.5C 80.5,109.5 77.5,109.5 74.5,109.5C 71.8333,109.5 69.1667,109.5 66.5,109.5C 66.5,101.833 66.5,94.1667 66.5,86.5C 66.5,83.5 66.5,80.5 66.5,77.5C 66.5,71.8333 66.5,66.1667 66.5,60.5C 68.1959,58.871 69.1959,59.2043 69.5,61.5 Z"/></g>
<g><path style="opacity:1" fill="#f68dc0" d="M 74.5,109.5 C 77.5,109.5 80.5,109.5 83.5,109.5C 83.5,110.833 83.5,112.167 83.5,113.5C 80.5,113.5 77.5,113.5 74.5,113.5C 74.5,112.167 74.5,110.833 74.5,109.5 Z"/></g>
<g><path style="opacity:1" fill="#fcc2ae" d="M 74.5,113.5 C 77.5,113.5 80.5,113.5 83.5,113.5C 83.5,114.167 83.5,114.833 83.5,115.5C 83.5,121.167 83.5,126.833 83.5,132.5C 80.5,132.5 77.5,132.5 74.5,132.5C 74.5,126.167 74.5,119.833 74.5,113.5 Z"/></g>
</svg>
